<svg width="100" height="100" viewBox="0 0 100 100" fill="none" xmlns="http://www.w3.org/2000/svg">
<g clip-path="url(#clip0_69_5059)">
<path d="M50 0C77.6168 0 100 22.3877 100 50C100 77.6168 77.6168 100 50 100C22.3877 100 0 77.6145 0 50C0 22.3877 22.3877 0 50 0Z" fill="#F5AC37"/>
<path d="M51.8428 53.5303H70.842C71.247 53.5303 71.4382 53.5303 71.4675 52.9993C71.6227 51.0665 71.6227 49.1225 71.4675 47.1875C71.4675 46.8117 71.2807 46.6565 70.8735 46.6565H33.0618C32.5938 46.6565 32.4678 46.8117 32.4678 47.2505V52.8125C32.4678 53.5303 32.4678 53.5303 33.2171 53.5303H51.8428ZM69.3457 40.1562C69.3997 40.0144 69.3997 39.8591 69.3457 39.7196C69.0285 39.0289 68.6527 38.3696 68.2162 37.7509C67.5592 36.6934 66.7852 35.7191 65.9032 34.8438C65.4869 34.3151 65.0054 33.8403 64.4654 33.4376C61.7609 31.1358 58.5456 29.5068 55.0896 28.6878C53.3458 28.2963 51.5638 28.1095 49.7773 28.1253H32.9966C32.5286 28.1253 32.4656 28.312 32.4656 28.7193V39.8119C32.4656 40.2799 32.4656 40.4059 33.0596 40.4059H69.1207C69.1207 40.4059 69.4335 40.3429 69.4965 40.1562H69.3435H69.3457ZM69.3457 60.0306C68.8147 59.9721 68.2792 59.9721 67.7482 60.0306H33.0933C32.6253 60.0306 32.4678 60.0306 32.4678 60.6561V71.5012C32.4678 72.0007 32.4678 72.1267 33.0933 72.1267H49.0933C49.8583 72.1852 50.6233 72.1312 51.3725 71.9715C53.6946 71.805 55.9783 71.301 58.1563 70.4707C58.9484 70.1962 59.7134 69.8384 60.4356 69.4087H60.6539C64.4047 67.4579 67.4512 64.3934 69.3727 60.6314C69.3727 60.6314 69.591 60.1589 69.3457 60.0351V60.0306ZM26.188 77.7495V77.5628V70.2817V67.8134V60.4694C26.188 60.0621 26.188 60.0014 25.6885 60.0014H18.907C18.5312 60.0014 18.3759 60.0014 18.3759 59.5018V53.564H25.6255C26.0305 53.564 26.188 53.564 26.188 53.033V47.1582C26.188 46.7825 26.188 46.6902 25.6885 46.6902H18.907C18.5312 46.6902 18.3759 46.6902 18.3759 46.1907V40.6917C18.3759 40.3474 18.3759 40.2552 18.8755 40.2552H25.594C26.062 40.2552 26.188 40.2552 26.188 39.6611V22.8175C26.188 22.318 26.188 22.192 26.8135 22.192H50.2498C51.9508 22.2595 53.6406 22.4462 55.3123 22.7545C58.7571 23.3912 62.0669 24.622 65.0932 26.3793C67.1002 27.5605 68.9475 28.987 70.5922 30.6296C71.8297 31.9143 72.9457 33.3048 73.9358 34.7853C74.919 36.2861 75.7358 37.8904 76.377 39.5666C76.4558 40.0032 76.8743 40.2979 77.3108 40.2237H82.9043C83.6221 40.2237 83.6221 40.2237 83.6536 40.9122V46.0377C83.6536 46.5372 83.4669 46.6632 82.9651 46.6632H78.6518C78.2153 46.6632 78.0893 46.6632 78.1208 47.2257C78.2918 49.1292 78.2918 51.0395 78.1208 52.943C78.1208 53.474 78.1208 53.537 78.717 53.537H83.6513C83.8696 53.8183 83.6513 54.0995 83.6513 54.383C83.6828 54.7453 83.6828 55.1121 83.6513 55.4743V59.2566C83.6513 59.7876 83.4961 59.9451 83.0258 59.9451H77.1195C76.7078 59.8663 76.3073 60.1296 76.2128 60.5391C74.8065 64.1954 72.5565 67.4737 69.6495 70.1017C68.5874 71.058 67.4714 71.958 66.3059 72.7882C65.0549 73.5082 63.8377 74.2575 62.5551 74.8515C60.1949 75.9135 57.7198 76.6965 55.1796 77.1938C52.7675 77.6258 50.3218 77.8215 47.867 77.7878H26.179V77.7563L26.188 77.7495Z" fill="#FEFEFD"/>
</g>
<defs>
<clipPath id="clip0_69_5059">
<rect width="100" height="100" fill="white"/>
</clipPath>
</defs>
</svg>
