<svg width="16" height="14" viewBox="0 0 16 14" fill="none" xmlns="http://www.w3.org/2000/svg">
<path d="M3.64371 0.306346C3.79985 0.122538 4.01844 0 4.26827 0H11.763C11.9816 0 12.2002 0.122538 12.3563 0.306346L15.8538 4.9628C16.0724 5.23851 16.0412 5.63676 15.7914 5.91247C14.5847 7.21872 9.34608 12.6273 8.22662 13.7823C8.10901 13.9037 7.92198 13.9039 7.80406 13.7829C6.68272 12.6316 1.4386 7.24389 0.208638 5.91247C-0.0411857 5.63676 -0.0724136 5.23851 0.146182 4.9628L3.64371 0.306346ZM4.8616 1.53173C4.73668 1.62363 4.73668 1.74617 4.79914 1.86871L6.57913 4.77899L1.98863 5.14661C1.86372 5.17724 1.77003 5.26915 1.77003 5.39168C1.77003 5.54486 1.86372 5.63676 1.98863 5.63676L7.98439 6.12691H8.01561L14.0114 5.63676C14.1363 5.63676 14.23 5.54486 14.23 5.39168C14.23 5.26915 14.1363 5.17724 14.0114 5.14661L9.42087 4.77899L11.2009 1.86871C11.2945 1.74617 11.2633 1.62363 11.1384 1.53173C11.0447 1.47046 10.8886 1.47046 10.8261 1.56236L8.01561 4.56455L5.17387 1.56236C5.11142 1.47046 4.95528 1.47046 4.8616 1.53173Z" fill="#FAFAFA"/>
</svg>
