<svg width="16" height="16" viewBox="0 0 16 16" fill="none" xmlns="http://www.w3.org/2000/svg">
<path d="M7.54167 12.9643C7.66667 13.0714 7.83333 13.1429 8 13.1429C8.20833 13.1429 8.375 13.0714 8.5 12.9643L14.5 7.82143C14.75 7.60714 14.75 7.21429 14.5 7C14.25 6.78571 13.7917 6.78571 13.5417 7L8.66667 11.1786L8.66667 0.571428C8.66667 0.25 8.375 -3.38773e-07 8 -3.71557e-07C7.66667 -4.00698e-07 7.33333 0.25 7.33333 0.571428L7.33333 11.1786L2.5 7C2.25 6.78571 1.79167 6.78571 1.54167 7C1.29167 7.21428 1.29167 7.60714 1.54167 7.82143L7.54167 12.9643ZM0.666666 16L15.3333 16C15.7083 16 16 15.7143 16 15.4286C16 15.1071 15.7083 14.8571 15.3333 14.8571L0.666666 14.8571C0.333333 14.8571 -2.19967e-07 15.1071 -2.48067e-07 15.4286C-2.73045e-07 15.7143 0.333333 16 0.666666 16Z" fill="#FAFAFA"/>
</svg>
