<svg width="100" height="100" viewBox="0 0 100 100" fill="none" xmlns="http://www.w3.org/2000/svg">
  <g clip-path="url(#clip0_69_4907)">
    <path d="M100 50C100 22.3599 77.5862 0 50 0C22.3599 0 0 22.3599 0 50C0 77.5862 22.3599 100 50 100C77.5862 100 100 77.5862 100 50Z" fill="url(#paint0_radial_69_4907)" />
    <path d="M83.9979 34.375C83.7824 35.6142 83.5669 36.2069 83.2436 36.8534C82.9203 37.6078 82.597 38.4159 82.2738 40.1401C82.166 40.7866 82.0582 41.3254 82.0044 41.7565V41.8103C81.8966 42.5108 81.8427 42.9957 81.5733 43.8039C81.3578 44.5043 80.9807 45.6358 80.0647 46.8211C79.3104 47.7909 78.0712 49.4612 76.4009 49.6767C76.2393 49.6767 75.9699 49.6767 75.8082 49.6228C71.0669 47.1983 67.0259 45.4203 65.6251 45.0431C64.0087 44.5582 64.2242 41.0022 64.3858 37.8772C64.4936 36.4763 64.5475 35.1293 64.4936 33.9978C64.2781 30.0108 63.5776 25.7004 60.1294 23.5991C58.0819 22.3599 55.388 21.9828 52.8557 21.9828C53.3406 21.7672 53.8255 21.444 54.4182 21.1207C55.9268 20.2586 57.7587 19.181 59.6444 18.9655C60.2371 18.9116 60.8298 18.8578 61.4225 18.75C65.1401 18.319 68.3729 17.9418 71.7673 19.1272C73.3298 19.6659 76.4548 21.3901 77.263 23.0603C77.8556 24.1918 78.8255 25.1078 80.7113 26.8858C81.735 27.8017 82.3815 28.3405 82.8664 28.7716C83.5669 29.3103 83.6746 29.472 83.8901 29.8491C84.5367 31.1422 84.3212 32.4892 83.9979 34.375Z" fill="white" />
    <path d="M66.8104 50.7004C67.0259 50.7543 67.1336 51.0237 66.972 51.2392C66.4871 51.9935 65.8944 53.0711 65.194 54.3103C64.8707 54.903 64.5474 55.4957 64.278 55.9267C63.3621 57.4892 63.3082 58.8362 63.2543 59.8599C63.2004 60.9914 63.1466 61.4763 62.4461 61.9073C61.9073 62.2845 61.3147 62.3922 57.4354 62.9849C56.7349 63.0927 56.4655 63.2004 56.1961 63.3621C56.1423 63.4159 56.0345 63.4159 55.9806 63.4698C55.7651 63.5776 55.5496 63.3621 55.5496 63.1465C55.6035 62.6078 55.6035 61.9073 55.6035 60.9914V60.8297C55.6035 60.0754 55.6035 59.4289 55.5496 58.944C55.4957 57.9741 55.4957 57.5431 55.7651 57.1121C56.0884 56.5733 56.3578 56.4116 56.7349 56.1422C57.3276 55.7651 58.1358 55.2802 59.2673 53.6638C59.9138 52.8017 60.0216 52.3168 60.1293 51.9397C60.1832 51.778 60.1832 51.7241 60.6681 51.347C61.153 50.9698 62.7155 49.7845 64.7091 50.1078C65.3556 50.2155 66.056 50.431 66.8104 50.7004Z" fill="white" />
    <path d="M51.347 68.5884C51.2393 68.6961 51.1854 68.75 51.0238 68.75C50.5927 68.75 50.3233 68.6422 50.1617 68.4267C49.7845 67.9418 49.8384 66.972 49.8923 66.3793L51.5625 65.9483C51.6703 66.8642 51.7242 68.1034 51.347 68.5884Z" fill="white" />
    <path d="M51.4548 62.6616C51.4009 62.8772 51.4009 63.1466 51.4009 63.4698C51.4009 63.5776 51.4009 63.6853 51.4009 63.7931C51.4009 64.0625 51.4009 64.4935 51.4009 64.7091C50.8621 64.8707 50.4311 64.8707 49.8923 64.8707C49.8923 64.7091 49.8923 64.4397 49.8923 64.278C49.8923 64.1703 49.8923 64.0086 49.8923 63.9009C49.8923 63.7392 49.8923 63.6315 49.8923 63.4698C49.8923 63.1466 49.8923 62.6616 49.9462 62.5C50.1078 62.5 50.2694 62.4461 50.4311 62.3922C50.7543 62.3384 51.2393 62.2306 51.5087 62.2845C51.5087 62.3922 51.5087 62.5539 51.4548 62.6616Z" fill="white" />
    <path d="M48.4375 68.1034C48.3836 68.9655 48.1142 69.9892 47.3061 70.1509C46.9289 70.2047 46.7673 70.097 46.6595 69.9892C46.1207 69.5043 46.0668 67.9957 46.1207 66.9181C46.4979 66.9181 46.9289 66.8642 47.4677 66.7565C47.791 66.7026 48.1142 66.5948 48.3836 66.5409C48.4375 66.972 48.4914 67.5108 48.4375 68.1034Z" fill="white" />
    <path d="M48.0604 65.0862L46.2823 65.7328C46.3901 65.0323 46.4979 64.0625 46.5517 63.4159C46.6056 62.9849 46.7134 62.8233 46.7673 62.7694C46.7673 62.7694 46.8211 62.7155 46.875 62.7155C46.875 62.7155 46.875 62.7155 46.9289 62.7155H46.9828L48.1142 62.6616C48.0604 63.2004 48.0604 64.3858 48.0604 65.0862Z" fill="white" />
    <path d="M45.1509 64.5474C45.0431 64.8168 44.9354 65.5711 44.8815 66.1099L42.6724 66.056C42.7802 65.3556 42.9957 64.6552 43.1573 64.1164C43.3729 63.5776 43.5345 63.1465 43.75 63.0388C43.9655 62.931 44.4504 62.8771 44.7737 63.1465C45.2586 63.4698 45.3664 63.9547 45.1509 64.5474Z" fill="white" />
    <path d="M44.3427 71.3901C44.1811 71.6056 43.9655 71.7672 43.75 71.7672C43.4806 71.8211 43.319 71.7134 43.1574 71.6056C42.4569 70.959 42.5108 68.8578 42.5647 67.8341C43.4806 67.6185 44.5043 67.4569 44.9893 67.403C44.9893 68.2112 45.0431 70.4203 44.3427 71.3901Z" fill="white" />
    <path d="M41.4332 65.9483C41.3255 66.2177 41.2177 66.4871 41.1639 66.7565C40.8945 66.8642 40.0863 66.7565 39.2781 66.5948L39.8169 63.0927C40.7328 62.8233 41.8104 62.7694 42.0259 63.0388C42.4031 63.4159 41.7026 65.194 41.4332 65.9483Z" fill="white" />
    <path d="M40.4095 71.875C39.9785 72.4138 39.3319 72.6832 38.416 72.6293C37.7694 72.6293 37.5539 72.3599 37.4462 72.1983C36.9612 71.3901 37.4462 69.5043 37.9311 68.319L40.9483 68.4806C41.0022 68.6961 41.0022 68.9655 41.0022 69.2349C41.0561 70.1509 40.9483 71.2284 40.4095 71.875Z" fill="white" />
    <path d="M65.4095 46.3901C62.6617 45.6358 62.9311 41.6487 63.1466 37.7694C63.2005 36.4224 63.3082 35.1293 63.2543 34.0517C63.0388 30.4418 62.4462 26.5086 59.5367 24.7306C56.4117 22.8448 51.2931 23.2759 48.1681 23.653C47.0367 23.9763 45.9591 24.2457 45.097 24.1918C43.2651 24.0841 41.8104 23.3297 40.5173 22.6293C39.5474 22.0905 38.6854 21.6056 37.8233 21.6056C37.7694 21.6056 37.7156 21.6056 37.7156 21.6056C35.291 21.7672 34.1595 22.3599 33.1358 23.2759C32.8664 23.4914 32.5431 24.1379 31.5194 27.1013C30.9806 28.6099 30.9268 29.4181 30.819 30.1724C30.7112 30.8728 30.6574 31.6272 30.2802 32.7586C30.0108 33.5129 29.7953 34.1595 29.6337 34.806C29.1487 36.4763 28.7177 37.8233 27.5324 39.4397C27.3707 39.6013 27.2091 39.9246 26.9936 40.194C26.7242 40.625 26.4009 41.1638 25.916 41.7565C25.5927 42.1875 24.8923 43.8039 24.9462 44.2888C25 45.097 25.2694 45.5819 25.5388 46.1207C25.8082 46.6595 26.1854 47.306 26.2393 48.222V48.3836C26.347 49.7845 26.1315 50.4849 23.4914 52.8556C21.8212 54.3642 20.5819 55.819 19.7737 56.8965C19.7199 57.0043 19.7737 57.1121 19.9354 57.1121C19.9893 57.1121 19.9893 57.1121 19.9893 57.1121C20.0431 57.1121 20.097 57.1121 20.1509 57.1121C20.2048 57.1121 20.2587 57.1121 20.3125 57.1121C20.3664 57.1121 20.4203 57.1121 20.4742 57.1121C21.1207 57.1659 21.7673 57.4353 22.1983 57.9203C22.2522 58.028 22.4138 58.028 22.5216 57.9741C22.9526 57.8125 23.4375 57.8125 23.8686 57.8664C24.4074 57.9203 25 58.0819 25.3772 58.459C25.485 58.5668 25.6466 58.6207 25.8082 58.5668C26.2393 58.459 26.7242 58.4591 27.1552 58.6207C27.4785 58.7284 27.8018 58.944 28.0173 59.2134C28.1789 59.375 28.4483 59.4289 28.6638 59.3211C28.7716 59.2672 28.9332 59.1595 29.0949 59.1056C29.6875 58.8901 30.3341 58.9978 30.8729 59.2134C31.1423 59.3211 31.4117 59.375 31.6811 59.5905C32.1121 59.9138 32.4354 60.3448 32.597 60.8297C32.7048 61.0991 33.0819 61.2069 33.2975 60.9914C33.7285 60.6681 34.0518 60.6142 34.375 60.722C34.5367 60.7759 34.6444 60.8836 34.7522 61.0453C34.9138 61.2608 35.1832 61.4763 35.3987 61.3685C36.3147 61.0991 37.3923 61.2608 38.2005 61.6918C38.4699 61.8534 38.7931 62.069 38.9548 62.3922V62.2306C38.9548 62.1767 39.0087 62.1228 39.0625 62.069L39.2242 62.0151C39.6552 61.8534 41.9181 61.2069 42.7802 62.1228C42.8341 62.1767 42.888 62.1767 42.9418 62.1228C43.0496 62.0151 43.1574 61.9073 43.2112 61.9073C43.8039 61.584 44.7737 61.5302 45.4203 62.1228C45.5281 62.2306 45.7436 62.1767 45.8513 62.069C45.9052 61.9612 45.9591 61.9073 46.0668 61.8534C46.2824 61.6379 46.6056 61.5841 46.9289 61.5841L48.1681 61.5302C48.4914 61.5302 49.4612 61.4224 49.7306 61.3685H49.7845C49.8923 61.3685 50.0539 61.3147 50.2156 61.2608C50.8082 61.153 51.5087 60.9914 52.0474 61.2608C52.5862 61.5302 52.5324 62.1228 52.4785 62.6616C52.4785 62.8772 52.4246 63.0927 52.4246 63.3082C52.4246 63.4159 52.4246 63.5237 52.4246 63.6315C52.4246 64.1164 52.4246 64.5474 52.3707 64.8707L52.4246 65.1401C52.4246 65.1401 52.4246 65.1401 52.4246 65.194C52.4785 65.4095 52.7479 65.5711 52.9095 65.4095C53.3405 65.1401 53.7716 64.8168 53.9332 64.6013V64.5474C53.9332 64.4935 53.9871 64.3858 54.041 64.1703C54.0949 63.6853 54.2026 62.7694 54.2026 60.8836C54.2026 60.7759 54.2026 60.722 54.2026 60.6681C54.2026 59.9677 54.2026 59.375 54.1487 58.8901C54.0949 57.8664 54.041 57.0582 54.5798 56.25C55.0647 55.4418 55.5496 55.1724 56.0345 54.8491C56.5733 54.5259 57.166 54.1487 58.1897 52.7478C58.6746 52.0474 58.7285 51.778 58.7824 51.5625C58.8901 51.0237 59.0518 50.7004 59.86 50.1616C60.5065 49.6767 62.3923 48.222 64.9785 48.653C65.8406 48.8147 67.1875 49.2457 68.5884 49.7845C68.6423 49.7845 68.6962 49.8384 68.75 49.8384H68.8039C70.0431 50.3233 71.1746 50.8621 71.9828 51.2931C72.1444 51.4009 72.36 51.347 72.5216 51.1853C72.791 50.8621 73.0604 50.7004 73.3298 50.4849C73.4375 50.431 73.5453 50.3772 73.5992 50.3233C73.6531 50.3233 73.6531 50.2694 73.6531 50.2694C73.8686 50.1078 73.8686 49.6767 73.5992 49.569C69.9893 47.7909 66.541 46.7134 65.4095 46.3901ZM39.4397 47.1983C38.5776 50.8621 32.8664 54.9569 30.2802 54.9569H30.2263C30.1725 54.9569 30.1186 54.9569 30.1186 54.9569C30.0647 54.9569 30.0108 54.9569 29.9569 54.903C29.9031 54.903 29.9031 54.903 29.8492 54.903C29.3643 54.7414 28.7177 54.4181 28.2328 53.9332C27.9095 53.6099 27.6401 53.1789 27.5324 52.8017C27.5324 52.7478 27.4785 52.6401 27.4785 52.5862C27.3168 51.9397 27.1552 51.1853 27.694 49.8922C27.7479 49.7306 27.8556 49.569 27.9095 49.4073C27.9095 49.3534 27.9634 49.2996 27.9634 49.2457C28.0173 49.0841 28.0712 48.9763 28.125 48.8685C28.1789 48.653 28.2867 48.4914 28.3406 48.3836C28.3406 48.3297 28.3944 48.2759 28.3944 48.222C28.5561 47.7909 28.5561 47.6293 28.61 47.4677C28.61 47.3599 28.6638 47.1444 28.7177 46.9289C28.8793 46.2284 28.9871 45.6358 29.041 45.1509C29.1487 44.2349 29.3104 43.4267 29.7953 42.6724C29.9031 42.5647 29.9569 42.4569 30.0647 42.3491C30.1186 42.2953 30.1186 42.2953 30.1725 42.2414C30.2263 42.1875 30.2263 42.1875 30.2802 42.1336C30.388 42.0259 30.5496 41.972 30.6574 41.9181C30.7112 41.9181 30.7651 41.8642 30.819 41.8642C30.9268 41.8103 31.0345 41.8103 31.1423 41.7565C31.6272 41.6487 32.166 41.6487 32.8125 41.7026C33.513 41.7565 34.1595 41.8642 34.6983 42.0259C35.1832 42.1336 35.6143 42.2953 35.9375 42.4569C35.9914 42.4569 35.9914 42.5108 36.0453 42.5108C36.0992 42.5647 36.1531 42.5647 36.2608 42.6185C36.3686 42.6724 36.4225 42.6724 36.5302 42.7263C36.638 42.7802 36.7457 42.834 36.8535 42.8879L36.9612 42.9418C37.3384 43.1034 37.7156 43.319 37.9849 43.5345C38.1466 43.6422 38.2543 43.75 38.3621 43.8578C38.416 43.9116 38.4699 43.9116 38.4699 43.9655C38.5237 44.0194 38.5237 44.0194 38.5776 44.0733C39.7091 45.0431 39.6552 46.3901 39.4397 47.1983ZM42.1337 33.2435L42.0259 33.8901C41.7565 35.3987 41.1638 37.4461 39.0087 37.9849C36.9074 38.4698 36.4225 38.5776 34.9677 38.6853C34.9138 38.6853 34.9138 38.6853 34.8599 38.6853C33.7824 38.6853 31.6811 37.9849 31.3039 36.3147C31.0884 35.2371 31.5733 34.4289 32.3276 33.1358C32.4354 32.9203 32.597 32.7047 32.7587 32.4353C33.8362 30.6573 34.2134 29.3642 34.5367 28.3405C34.86 27.3168 35.1293 26.5086 35.8298 25.8082C35.9914 25.6466 36.1531 25.4849 36.3686 25.3772C36.4763 25.2694 36.638 25.2155 36.7996 25.1078C37.0151 25 37.2306 24.9461 37.4462 24.8384C37.9311 24.6767 38.4699 24.6228 38.9548 24.6228C39.9785 24.6228 41.0022 24.8922 41.7026 25.4849C42.0259 25.7543 42.5108 26.2392 42.7802 27.8017C42.888 28.6099 42.6724 30.0647 42.1337 33.2435ZM57.597 37.5539C56.8427 38.847 56.4656 39.5474 55.819 40.0862C54.5259 41.1638 53.0712 41.3793 51.8319 41.3793C50.9699 41.3793 50.2156 41.2177 49.7306 41.1638C48.4375 40.9483 46.1207 40.5172 45.3125 38.6315C45.1509 38.2543 45.1509 38.0388 45.1509 37.7155C45.1509 37.4461 45.1509 36.9073 44.9893 35.7759V35.722C44.9354 35.1832 44.8815 34.5905 44.9893 33.8362V33.7284C45.4203 31.4655 45.5819 31.1422 45.6358 30.9267C45.8513 30.4957 46.3901 30.2802 46.875 30.5496C47.3061 30.7651 47.4677 31.3039 47.3061 31.7349C47.2522 31.8427 47.1444 32.3276 46.7673 34.1056V34.2134C46.6595 34.6983 46.7134 35.0754 46.7673 35.5603V35.6142C46.9289 36.9073 46.9289 37.4461 46.9289 37.7694C46.9289 37.8233 46.9289 37.8772 46.9289 37.931V37.9849C47.0906 38.3621 47.4138 38.5776 47.791 38.7931C48.0604 38.9009 48.3298 38.6853 48.2759 38.4159C47.8987 36.4224 47.8987 34.1056 48.6531 32.6509C48.9225 32.1659 49.3535 31.4116 49.7845 30.6573C49.8384 30.6034 49.8923 30.4957 49.8923 30.4418C49.9462 30.3879 49.9462 30.3341 50 30.2802C50.2156 29.9569 50.3772 29.6875 50.5388 29.4181C50.5388 29.3642 50.5927 29.3642 50.5927 29.3103L50.6466 29.2565C50.7005 29.2026 50.7005 29.1487 50.7543 29.0948C50.7543 29.0948 50.7543 29.0409 50.8082 29.0409L50.8621 28.9871C50.8621 28.9332 50.916 28.9332 50.916 28.8793C51.0776 28.6638 51.2393 28.4483 51.347 28.2328C51.5625 27.9634 51.2931 27.6401 51.0237 27.7478C50.2694 28.0711 49.7845 28.4483 49.6768 28.5022C49.2996 28.8254 48.7069 28.7716 48.3837 28.3405C48.0604 27.9634 48.1143 27.3707 48.5453 27.0474C49.0302 26.6703 51.5087 24.8922 54.472 25.7004C56.6272 26.2931 57.7048 27.9634 58.1358 28.556C58.4591 29.0409 59.5367 30.5496 59.4828 32.7047C59.4828 34.2672 58.8362 35.4526 57.597 37.5539Z" fill="white" />
    <path d="M38.3082 26.5086C38.1466 26.8858 37.9849 27.3168 37.7694 27.8017C37.3384 28.9332 36.7996 30.2263 36.5302 30.7112C36.0992 31.5194 35.7759 32.0582 35.5065 32.4353C35.1832 32.9203 34.9677 33.2974 34.7522 33.8362C34.4289 34.7522 34.375 35.7759 34.5906 36.9073C33.9979 36.8534 33.0819 36.4763 32.9742 35.9375C32.9203 35.5603 33.1358 35.1832 33.7824 34.0517C33.8901 33.8362 34.0518 33.5668 34.2134 33.3513C35.3449 31.4116 35.8298 29.9569 36.1531 28.8793C36.5302 27.7478 36.6918 27.2629 37.2845 26.8319C37.6617 26.6703 37.9849 26.5625 38.3082 26.5086Z" fill="white" />
    <path d="M37.1767 67.2414C36.5302 68.5345 35.7759 69.7198 35.291 70.3125C34.8599 69.2349 34.1595 66.7026 34.375 64.7091C34.375 64.6552 34.375 64.6013 34.375 64.5474C34.4289 63.9009 34.5905 63.3621 34.9138 62.8772C35.1293 62.5539 35.6681 62.3922 36.2608 62.3922C36.6918 62.3922 37.1767 62.5 37.6078 62.7155C37.8233 62.8233 38.1466 63.0927 38.1466 63.7931C38.2543 64.7629 37.7694 66.056 37.1767 67.2414Z" fill="white" />
    <path d="M71.6595 52.8556C71.7134 52.9095 71.7134 52.9634 71.7134 53.0172C71.5518 53.3944 71.2824 53.6638 71.013 53.9871C70.6897 54.3642 70.3125 54.7953 69.9893 55.4957C69.5044 56.4655 69.3427 57.3276 69.2888 59.5905C69.1811 62.2306 69.2888 63.6853 69.3966 64.7629C69.4505 65.7866 69.5044 66.4332 69.3427 67.4569C68.9656 69.5043 68.1035 70.8513 66.972 72.5754C65.5712 74.7306 64.1703 76.9397 61.7996 77.6401C61.5841 77.694 61.5841 77.694 60.9375 77.694C60.3988 77.694 59.4828 77.694 57.8125 77.7478C54.6875 77.8556 53.125 77.9095 51.8319 78.1789C50.4311 78.4483 49.7306 78.7715 48.9763 79.0409C48.3298 79.3103 47.7371 79.5259 46.6056 79.7953C45.9052 79.9569 44.8815 80.0647 41.3794 80.1185C37.7156 80.1185 35.5065 80.1185 32.6509 79.7953C28.6638 79.3642 26.6703 79.0948 25.3233 78.3944C22.1983 76.7241 20.8513 73.7069 18.6962 68.75C18.6962 68.6961 18.75 68.6422 18.8039 68.6422C18.9117 68.6961 19.0194 68.75 19.1272 68.8039C19.235 68.8578 19.3427 68.8578 19.3966 68.8578C19.6121 68.9116 19.8276 68.9116 20.0431 68.8578C20.097 68.8578 20.097 68.8578 20.1509 68.8039C20.2048 68.8039 20.2587 68.8039 20.2587 68.8578C20.4203 69.2349 20.6358 69.5582 21.013 69.7737C21.3901 69.9892 21.8212 69.9892 22.1983 69.9892C22.6294 69.9892 23.0604 69.9353 23.4914 69.8815C23.7069 69.8815 23.9225 69.9892 24.0302 70.1509C24.4074 71.1207 24.8923 71.7672 25.6466 71.875C25.7005 71.875 25.7544 71.875 25.8082 71.875C25.9699 71.875 26.2393 71.8211 26.5625 71.6056C26.8319 71.3901 27.263 71.5517 27.4785 71.8211C27.6401 72.0905 27.8556 72.2522 28.0712 72.4138C28.8255 73.1681 30.6574 73.5453 32.166 73.5453C32.9742 73.5453 33.7285 73.4375 34.1595 73.222C34.8061 72.8987 34.8061 72.4677 34.7522 72.2522C34.6983 71.9289 34.6444 71.5517 34.5906 71.2284C34.5906 71.1746 34.6444 71.1746 34.6444 71.2284C34.7522 71.444 34.86 71.6595 35.1294 71.7134C35.1832 71.7134 35.1832 71.7134 35.2371 71.7134C35.6681 71.7134 36.3147 71.875 36.4225 72.2522C36.4763 72.4677 36.5841 72.6293 36.6919 72.8448C36.9613 73.222 37.4462 73.7069 38.4699 73.7608H38.5238C39.7091 73.7608 40.625 73.3836 41.2177 72.6293C41.2716 72.5754 41.2716 72.5216 41.3255 72.4677C41.541 72.1444 42.1875 72.1444 42.4569 72.4138C42.7802 72.6832 43.1574 72.8448 43.5884 72.8448C43.6423 72.8448 43.75 72.8448 43.8039 72.8448C44.3427 72.7909 44.7738 72.5215 45.1509 72.0366C45.3664 71.7134 45.5281 71.3362 45.6358 70.9052C45.6897 70.7974 45.8513 70.7435 45.9591 70.8513C46.1746 71.0668 46.5518 71.2823 47.0906 71.2823C47.1983 71.2823 47.36 71.2823 47.5216 71.2284C48.5453 71.0129 49.0841 70.1509 49.2996 69.2349C49.2996 69.181 49.3535 69.181 49.3535 69.2349C49.6229 69.5582 50.1078 69.9353 50.916 69.9353C50.9699 69.9353 51.0238 69.9353 51.0238 69.9353C51.4548 69.9353 51.8319 69.7198 52.1013 69.3966C52.4246 68.9655 52.5324 68.319 52.5863 67.7263C52.5863 67.5647 52.694 67.403 52.9095 67.2953C53.7716 66.9181 54.8492 66.1099 55.1725 65.5711C55.1725 65.5711 55.1725 65.5172 55.2263 65.5172C55.2802 65.3556 55.4419 65.2478 55.5496 65.2478C56.25 65.1401 56.5194 64.9784 56.7888 64.8707C57.0044 64.7629 57.166 64.7091 57.7048 64.6013C61.638 64.0086 62.3923 63.847 63.2544 63.3082C64.5475 62.4461 64.6013 61.2608 64.6552 60.1293C64.7091 59.1595 64.763 58.0819 65.5173 56.7888C65.7867 56.3039 66.11 55.7651 66.4332 55.1185C67.0259 54.0409 67.8341 52.5323 68.4268 51.7241C68.5345 51.5625 68.75 51.5086 68.9117 51.6164C70.2587 52.1013 71.444 52.6401 71.6595 52.8556Z" fill="white" />
    <path d="M33.4052 64.6013C33.2436 65.9483 33.1358 67.7802 33.3513 70.1509C33.4052 70.7974 33.513 71.4978 33.6207 72.1983C33.4591 72.306 32.8664 72.4677 31.8966 72.4138C30.4957 72.3599 29.0949 72.0366 28.6638 71.5517L28.6099 71.4978C28.2867 71.2284 28.0173 71.0129 28.0173 70.528C28.0173 70.3664 28.0712 70.2047 28.2328 69.9353C28.3405 69.8276 28.4483 69.6659 28.5561 69.4504C28.7716 69.1272 29.0949 68.75 29.4181 68.2112C30.3341 66.7026 30.6574 66.2177 31.0884 65.625C31.1423 65.5711 31.1423 65.5172 31.1962 65.4634C31.4655 65.1401 31.7349 64.7091 32.2199 64.0086C32.5431 63.5237 32.8125 63.0927 33.0819 62.7694C33.4591 62.2306 33.7285 61.9612 33.8901 61.7996C33.8901 62.0151 33.8362 62.3384 33.7824 62.6616C33.5668 63.3082 33.4591 63.9009 33.4052 64.6013Z" fill="white" />
    <path d="M32.7048 43.3728C32.7048 43.4267 32.7048 43.4267 32.7048 43.3728C32.4892 43.6422 32.2737 43.9655 32.0043 44.5043C31.3039 46.0129 31.3039 46.875 31.3039 47.5754C31.3039 47.9526 31.3039 48.222 31.1961 48.5453C31.1423 48.7608 31.0345 49.0302 30.8729 49.2996C30.4957 50.2155 29.9569 51.4009 30.1724 53.0172C29.8492 52.8556 29.3642 52.4784 29.2565 52.3168C29.2565 52.2091 29.2026 52.1552 29.2026 52.0474C29.0948 51.5625 29.041 51.2392 29.3104 50.4849C30.1724 48.5453 30.2802 48.0603 30.3341 47.5215C30.3341 47.4138 30.388 47.306 30.388 47.1444C30.5496 46.3901 30.6573 45.7435 30.7112 45.2047C30.819 44.3966 30.9267 43.8578 31.1961 43.4806C31.3039 43.319 31.5733 43.2651 31.9505 43.2651C32.1121 43.2651 32.2737 43.2651 32.4892 43.319H32.5431C32.7048 43.3728 32.7048 43.3728 32.7048 43.3728Z" fill="white" />
    <path d="M31.6272 62.6078C31.5733 62.1228 31.5194 61.6918 31.3039 61.2069C31.3039 61.2069 31.25 61.0991 31.25 61.0453C31.1962 60.9914 31.1962 60.9375 31.1423 60.8836L31.0884 60.8297C31.0345 60.7759 31.0345 60.7759 30.9806 60.7759L30.9268 60.722C30.8729 60.722 30.8729 60.6681 30.819 60.6681H30.7651C30.4957 60.5603 30.2263 60.4526 29.9031 60.3987C29.8492 60.3987 29.7953 60.3987 29.7953 60.3987C29.7414 60.3987 29.7414 60.3987 29.6875 60.3987H29.6337C29.5798 60.3987 29.5259 60.4526 29.4181 60.4526C29.3643 60.4526 29.3643 60.5065 29.3104 60.5065L29.2565 60.5603C29.2026 60.6142 29.2026 60.6142 29.1488 60.6681L29.0949 60.722V60.7759C28.9871 60.9375 28.8794 61.0991 28.7716 61.2608C28.5022 61.6379 28.2328 62.069 27.9634 62.4461C27.694 62.8233 27.4785 63.1466 27.2091 63.5237C27.0475 63.7392 26.9397 63.9009 26.7781 64.1164C26.7781 64.1703 26.7242 64.1703 26.7242 64.2241C26.8858 64.278 27.0475 64.278 27.2091 64.3319C27.5863 64.3858 27.9634 64.4397 28.2867 64.4935C29.041 64.6013 29.8492 64.6552 30.6035 64.6013C30.6574 64.6013 30.6574 64.6013 30.7113 64.6013C30.8729 64.3319 31.1423 64.0086 31.4117 63.5776C31.5733 63.3621 31.735 63.1466 31.8427 62.931C31.6811 62.8772 31.6272 62.7155 31.6272 62.6078Z" fill="white" />
    <path d="M28.8794 65.7866C28.8255 66.3793 28.1789 67.8879 27.1552 69.3427C26.2932 70.528 25.7544 70.8513 25.6466 70.8513C25.2156 70.7974 24.8384 69.7737 24.5151 68.75C24.4074 68.319 24.2457 67.9418 24.1919 67.5647C23.9763 66.8103 23.9225 65.7328 23.9763 65.0862C24.8384 65.5711 26.347 65.6789 28.5022 65.6789C28.61 65.7328 28.7716 65.7328 28.8794 65.7866Z" fill="white" />
    <path d="M27.3707 60.9375C26.9936 61.5302 26.6164 62.069 26.2392 62.6078C26.0237 62.8772 25.8621 63.1466 25.6466 63.416C25.5388 63.5776 25.3772 63.7392 25.2694 63.9009C24.9461 63.847 24.6767 63.7392 24.3535 63.6853C24.0841 63.6315 23.8686 63.5237 23.5992 63.416C23.5453 63.416 23.4914 63.3621 23.4375 63.3621C23.3836 63.3082 23.3298 63.2004 23.2759 63.1466C23.3836 62.9849 23.4375 62.7694 23.5453 62.6078C23.7069 62.2845 23.8686 61.9612 24.0841 61.6379C24.4073 61.0991 24.7845 60.5065 25.3772 60.1293C25.4311 60.1293 25.4311 60.0754 25.4849 60.0754C25.7004 59.9677 25.916 59.8599 26.1854 59.806C26.2392 59.806 26.4009 59.806 26.5086 59.806H26.5625C26.5625 59.806 26.5625 59.806 26.6164 59.806C26.6703 59.806 26.7242 59.8599 26.8319 59.8599C26.8319 59.8599 26.8858 59.8599 26.8858 59.9138C26.9397 59.9677 26.9936 59.9677 27.0474 60.0216C26.9397 59.9677 27.1552 60.1832 27.1552 60.1293C27.2629 60.4526 27.3168 60.6142 27.3707 60.9375Z" fill="white" />
    <path d="M24.4612 59.375C23.7608 59.9138 23.2759 60.6681 22.8987 61.4763C22.6832 61.9073 22.4677 62.3384 22.2522 62.7694C22.2522 62.8233 22.1983 62.8771 22.1983 62.8771C21.9828 62.8233 21.7673 62.7694 21.6056 62.7155C21.3901 62.6616 21.1746 62.5539 20.9591 62.5C20.8513 62.4461 20.7975 62.3922 20.6897 62.3384C20.9052 61.9612 21.1207 61.584 21.3901 61.2069C21.7134 60.722 22.0906 60.1832 22.4677 59.7521C22.6294 59.5905 22.791 59.375 22.9526 59.2672C23.1681 59.1595 23.3837 59.1595 23.6531 59.2134C23.9225 59.2134 24.1919 59.2134 24.4074 59.3211C24.3535 59.3211 24.4074 59.375 24.4612 59.375Z" fill="white" />
    <path d="M23.3837 68.5345C23.3298 68.5884 23.3298 68.5884 23.2759 68.6422H23.222C23.0604 68.6422 22.8988 68.6961 22.7371 68.6961C22.4138 68.6961 22.0906 68.75 21.7673 68.6961C21.6057 68.6961 21.444 68.6422 21.3363 68.5345C21.2285 68.3728 21.1746 68.0496 21.1207 67.834C20.9052 66.6487 20.9052 65.4634 21.013 64.278C21.6057 64.4935 22.2522 64.6552 22.8988 64.7629C22.7371 65.8405 23.0065 67.403 23.1143 67.834C23.2759 68.0496 23.3298 68.319 23.3837 68.5345Z" fill="white" />
    <path d="M21.444 58.9978C20.9052 59.6444 20.4203 60.3448 19.9892 61.0991C19.8276 61.3685 19.6121 61.6918 19.4505 62.0151C19.2349 61.9612 19.0194 61.8534 18.8578 61.7457C18.6961 61.6379 18.5345 61.5302 18.4267 61.4224C18.3729 61.3685 18.2651 61.3147 18.2112 61.2608C18.2112 61.2608 18.1573 61.2608 18.1573 61.2069C18.2112 61.0453 18.319 60.9375 18.319 60.8297C18.4267 60.5603 18.5345 60.3448 18.6961 60.1293C18.9655 59.6983 19.2349 59.2672 19.5582 58.8362C19.666 58.6746 19.7737 58.5129 19.9892 58.4591C20.1509 58.4052 20.3664 58.4591 20.528 58.4591C20.8513 58.5129 21.1746 58.7284 21.444 58.9978Z" fill="white" />
    <path d="M17.2953 61.8535C17.2953 61.7996 17.3492 61.7996 17.2953 61.8535C17.5108 62.069 17.6724 62.2306 17.888 62.3922C17.9957 62.4461 18.0496 62.5539 18.1574 62.6078C18.1574 62.6078 18.1574 62.6078 18.1574 62.6616C17.9418 63.5776 17.7802 64.5474 17.7802 65.5172C17.7802 65.5711 17.7263 65.5711 17.7263 65.5172C17.4569 64.3858 17.1336 62.5539 17.2953 61.8535Z" fill="white" />
    <path d="M19.9354 63.847C19.8276 64.6552 19.7737 65.4634 19.8276 66.2716C19.8276 66.7026 19.8815 67.1336 19.9354 67.6185C19.8276 67.6185 19.7199 67.6185 19.6121 67.6185H19.5582H19.5043C19.3966 67.5647 19.3966 67.5647 19.2888 67.5108C19.1811 67.4569 19.0733 67.2953 18.9655 67.1336C18.75 66.7565 18.6961 66.3254 18.6961 65.8944C18.6423 65.0862 18.75 64.2241 18.9117 63.4159C19.0194 63.4698 19.1811 63.5237 19.3427 63.5776C19.5582 63.6853 19.7199 63.7931 19.9354 63.847Z" fill="white" />
    <mask id="mask0_69_4907" style="mask-type:luminance" maskUnits="userSpaceOnUse" x="0" y="0" width="100" height="100">
      <path d="M100 50C100 22.3599 77.5862 0 50 0C22.3599 0 0 22.3599 0 50C0 77.5862 22.3599 100 50 100C77.5862 100 100 77.5862 100 50Z" fill="white" />
    </mask>
    <g mask="url(#mask0_69_4907)">
      <g opacity="0.8">
        <path opacity="0.8" d="M41.1638 105.873C37.5 105.873 34.0517 105.657 31.1422 105.442L30.334 105.388L29.5258 105.28C29.1487 105.226 28.7177 105.172 28.2327 105.119C25.431 104.795 20.2047 104.256 14.4396 101.562L13.5237 101.131L12.7155 100.647C1.61636 94.3965 -2.47847 85.0754 -4.7414 80.0647C-4.90304 79.7414 -5.06467 79.3642 -5.22631 78.9871C-6.35778 76.6703 -7.05821 74.6228 -7.65088 72.6832L-7.75864 72.2522L-7.8664 71.8211C-9.48278 66.1099 -9.85993 61.2069 -9.1595 56.3039C-8.40519 51.4009 -6.62717 46.9828 -3.44829 42.2953L-1.83191 39.6552C-1.50864 39.1164 -1.29312 38.5237 -1.13148 37.931C0.107741 31.7888 2.90947 27.4246 4.31033 25.3233C4.68748 22.7909 5.33403 20.3125 6.1961 17.8879L6.30386 17.5108L6.4655 17.1336C6.4655 17.0797 6.51938 16.972 6.57326 16.8103C7.21981 14.9246 8.67455 10.5603 12.3922 5.92672L13.7931 4.31034L15.2478 3.01724C18.9116 -0.323277 23.3297 -2.80173 28.0711 -4.20259C30.7112 -5.01078 33.459 -5.49569 36.2608 -5.65733H36.5302H36.9073C37.3922 -5.65733 37.8771 -5.71121 38.3082 -5.71121C40.0323 -5.71121 41.7564 -5.54957 43.4806 -5.28017C44.5582 -5.11854 45.6358 -5.22629 46.6595 -5.65733C49.6228 -6.89655 52.6939 -7.70474 55.8728 -8.13578C56.1422 -8.18966 56.3577 -8.18966 56.5733 -8.24354C57.0582 -8.29741 57.8664 -8.40517 58.8362 -8.51293C60.5064 -8.67457 63.0927 -8.89009 65.8405 -8.89009C71.2823 -8.89009 75.9698 -8.18966 80.1724 -6.73491L80.5495 -6.62716L80.8728 -6.5194C90.1401 -3.01724 94.8276 1.88577 98.222 6.14224L98.3836 6.35776L98.8685 6.78879C101.94 9.15948 104.526 12.1228 106.573 15.4095L107.22 16.4332L107.759 17.5108C112.284 26.7241 110.83 35.2909 110.291 38.4698L110.237 38.6315C109.86 41.0022 109.213 43.319 108.405 45.5819C108.082 47.7371 107.597 49.8922 106.897 51.9397C105.711 55.6034 103.933 59.1056 101.67 62.2306C100.377 64.0625 98.8685 65.8405 97.2521 67.403C96.6595 67.9418 96.2823 68.6961 96.1745 69.5043C96.1207 69.9892 96.0129 70.4741 95.959 70.959C94.6121 78.0711 91.5409 83.028 90.2478 85.0215L86.4224 90.5172C81.7888 96.2823 76.2931 100.054 69.6659 102.101L68.0495 102.586L66.3254 102.909C64.3319 103.287 62.3383 103.448 60.2909 103.448C60.0215 103.448 59.7521 103.448 59.4289 103.448H59.3211H58.9978H58.6207C57.8664 103.448 57.112 103.61 56.3577 103.825C51.9396 105.226 47.0905 105.873 41.1638 105.873Z" stroke="url(#paint1_linear_69_4907)" stroke-width="1.0554" stroke-miterlimit="10" />
        <path opacity="0.8" d="M41.1638 102.047C37.6616 102.047 34.2672 101.832 31.4655 101.616L30.8189 101.562L30.1724 101.455C29.7414 101.401 29.2564 101.347 28.7715 101.293C26.0237 101.024 21.4978 100.485 16.4332 98.1142L15.6789 97.7371L14.9784 97.3599C5.11851 91.9181 1.50859 83.7823 -0.64658 78.9332C-0.808218 78.6099 -0.969855 78.1789 -1.18537 77.8017C-2.20908 75.7543 -2.85563 73.8147 -3.39442 72.0905L-3.50218 71.7134L-3.60994 71.3901C-5.0108 66.2715 -5.38796 61.9612 -4.74141 57.7047C-4.09486 53.5022 -2.47848 49.569 0.323248 45.4741L2.42454 42.0797C2.8017 41.4871 3.07109 40.7866 3.17885 40.0862C4.20256 34.2672 6.9504 30.1724 8.18963 28.2866L8.35127 28.0711L8.40514 27.9634C8.40514 27.9095 8.45902 27.8556 8.45902 27.8017C8.5129 27.5323 8.62066 27.3168 8.67454 27.1013C8.99782 24.7306 9.59049 22.3599 10.3987 20.097L10.5064 19.7737L10.6142 19.4504C10.6681 19.3427 10.6681 19.2349 10.7758 18.9116C11.3685 17.1336 12.6077 13.4159 15.8405 9.42888L17.0258 8.02802L18.2112 6.95043C21.3901 4.04095 25.2155 1.88578 29.3103 0.700431C31.681 -1.24759e-07 34.0517 -0.431034 36.5301 -0.538793H36.7457H37.0689C37.5 -0.538793 37.8771 -0.592672 38.2543 -0.592672C40.0323 -0.592672 41.7564 -1.07759 43.4806 -0.75431C44.8276 -0.484914 46.1745 -0.646552 47.4138 -1.18534C49.7306 -2.20905 52.8556 -2.58621 56.4116 -3.07112C56.681 -3.125 56.8965 -3.125 57.0582 -3.17888C57.5431 -3.23276 58.2974 -3.34052 59.1595 -3.3944C60.722 -3.55603 63.1465 -3.71767 65.7866 -3.71767C70.7435 -3.71767 74.9461 -3.07112 78.6638 -1.8319L78.987 -1.72414L79.2564 -1.61638C87.4461 1.50862 91.487 5.60345 94.6659 9.6444C94.8276 9.85991 95.0431 10.0754 95.097 10.1832L95.1508 10.2371L95.7435 10.7759L95.7974 10.8836C98.5452 12.9849 100.862 15.5711 102.64 18.4806L103.179 19.3427L103.61 20.2586C107.489 28.1789 106.304 35.4526 105.765 38.5237L105.711 38.6853C105.334 40.9483 104.741 43.1034 103.933 45.2586C103.664 47.306 103.179 49.3534 102.532 51.2931C101.455 54.5259 99.8922 57.597 97.8987 60.3987C96.5517 62.3384 94.9353 64.1164 93.2112 65.6789C92.403 66.4332 91.8642 67.403 91.7564 68.5345C91.6487 69.3427 91.5409 70.097 91.4332 70.9052C90.2478 77.209 87.5539 81.5194 86.2607 83.459L83.1357 87.9849C78.987 93.319 74.084 96.7672 68.1573 98.5991L66.8103 99.0302L65.3556 99.2996C63.6314 99.6228 61.8534 99.7845 60.1293 99.7306C59.8599 99.7306 59.5905 99.7306 59.3211 99.7306H59.2672H59.1056C59.1056 99.7306 59.0517 99.7306 58.9439 99.7306H58.6207H58.2974H57.7047C56.8965 99.7845 56.0883 99.8922 55.2801 100.162C51.347 101.455 46.7672 102.047 41.1638 102.047Z" stroke="url(#paint2_linear_69_4907)" stroke-width="1.0554" stroke-miterlimit="10" />
        <path opacity="0.8" d="M41.1638 97.5754C37.8233 97.5754 34.5366 97.3599 31.7888 97.1444L31.25 97.0905L30.7112 97.0366C30.2263 96.9828 29.6875 96.9289 29.1487 96.875C26.5625 96.6056 22.6293 96.1746 18.2112 94.0733L17.6185 93.8039L17.0798 93.4806C8.6207 88.7392 5.4957 81.7349 3.44829 77.1013C3.28665 76.7241 3.07113 76.2392 2.90949 75.8621C1.99354 74.0302 1.40087 72.306 0.915959 70.6897L0.8082 70.4203L0.754321 70.1509C-0.484903 65.7328 -0.808179 61.9612 -0.269386 58.4052C0.269407 54.7953 1.72415 51.4009 4.2026 47.7909L4.52587 47.3599L4.84915 46.9289C5.06467 46.6595 5.2263 46.3901 5.44182 46.1746L6.68104 43.8578C7.11208 43.1034 7.38148 42.2953 7.48923 41.4332C8.29742 36.2608 10.7759 32.5431 11.9073 30.819C11.9612 30.7112 12.069 30.6034 12.1229 30.5496L12.3923 30.1724C12.5 29.9569 12.6078 29.6875 12.7155 29.3642C12.8233 29.0409 12.9849 28.556 13.0927 28.125C13.3621 25.9159 13.9009 23.7608 14.6552 21.6595L14.7629 21.3901L14.8707 21.1207C14.9246 20.9052 15.0323 20.7435 15.1401 20.3664C15.6789 18.6961 16.7026 15.625 19.4504 12.2845L20.3664 11.153L21.3362 10.2909C24.0302 7.8125 27.2629 6.03448 30.7651 4.95689C32.8125 4.36422 34.8599 3.98707 37.0151 3.87931H37.1767H37.4461C37.7694 3.87931 38.0927 3.87931 38.4698 3.87931C40.3017 3.87931 42.0798 4.09483 43.8578 4.57974C45.3664 4.95689 46.9828 4.79526 48.3836 4.09483C50.6466 3.01724 53.6638 1.83189 57.166 1.40086C57.3815 1.34698 57.597 1.34698 57.7586 1.2931C58.1897 1.23922 58.8901 1.13146 59.7522 1.07758C61.2069 0.915947 63.5237 0.754309 65.9483 0.754309C70.3664 0.754309 74.0841 1.2931 77.3707 2.42457L77.5862 2.53233L77.8017 2.64008C85.3448 5.49569 88.6854 9.21336 91.2716 12.5C91.8642 13.2004 91.9181 13.3082 92.2953 13.6853L92.7802 14.1164L92.9418 14.3319C94.181 15.3017 96.7134 17.2953 98.9224 20.9052L99.3535 21.6056L99.7306 22.306C103.017 28.9332 101.994 34.9677 101.509 37.8772L101.455 38.0388C101.131 40.1401 100.539 42.2414 99.6767 44.2349V44.3965C99.4612 46.2823 99.0302 48.1681 98.4375 49.9461C97.5216 52.8017 96.1746 55.4418 94.3966 57.8664C92.9418 59.9677 91.1638 61.8534 89.1703 63.4698C88.6854 63.847 88.3082 64.3319 88.0388 64.8707C87.7694 65.4095 87.6078 66.0021 87.5539 66.5948C87.5 67.7802 87.3384 68.9655 87.1229 70.1509C86.0991 75.5927 83.7285 79.3642 82.5431 81.25L80.1185 84.806C76.5086 89.6552 72.1983 92.7802 66.972 94.3965L65.8944 94.7198L64.7091 94.9353C63.2543 95.2047 61.7457 95.3125 60.2371 95.3125C60.0216 95.3125 59.7522 95.3125 59.4828 95.3125H59.4289H59.1595C59.1056 95.3125 58.9979 95.3125 58.7285 95.3125H58.4591H58.2435L57.0043 95.3664C56.1423 95.4203 55.2802 95.528 54.472 95.8513C50.7543 97.0366 46.4979 97.5754 41.1638 97.5754Z" stroke="url(#paint3_linear_69_4907)" stroke-width="0.9894" stroke-miterlimit="10" />
        <path opacity="0.8" d="M41.1638 93.1034C37.9849 93.1034 34.806 92.8879 32.1659 92.6724L31.7888 92.6185L31.4116 92.5647C30.8728 92.5108 30.2801 92.403 29.7413 92.3491C27.3168 92.0797 23.9763 91.7026 20.2047 89.9784L19.7737 89.7629L19.3426 89.5474C12.1767 85.5065 9.53661 79.5797 7.59695 75.2694C7.38144 74.8384 7.16592 74.3534 7.00428 73.9224C6.19609 72.2522 5.6573 70.6897 5.22626 69.3427L5.17238 69.1272L5.01075 68.9655C2.90945 61.5302 3.71764 56.3039 7.81247 50.3233L8.02799 50L8.2435 49.6767C8.5129 49.3534 8.7823 48.9763 9.05169 48.653C9.42885 48.1681 9.806 47.6293 10.237 47.1444C10.5064 46.8211 10.722 46.444 10.8836 46.0668L11.3685 44.8815C11.584 44.3427 11.6918 43.8039 11.7457 43.2651C12.1767 38.4698 14.4935 35.0215 15.625 33.2974C15.7327 33.1897 15.8405 32.9741 15.8944 32.9203L16.1638 32.4892L16.2715 32.3815C16.4332 32.1121 16.7026 31.4655 16.9181 30.819C17.0258 30.3879 17.2413 29.6875 17.4569 29.0948V29.0409C17.6724 27.0474 18.1573 25.0539 18.8577 23.1681L18.9116 23.0065L18.9655 22.8448C19.0732 22.5216 19.181 22.2522 19.2888 21.875C19.7737 20.4203 20.5819 17.9418 22.7909 15.194L23.4913 14.3319L24.1918 13.6853C29.4181 8.94396 35.237 8.56681 37.1767 8.40517H37.2845H37.5C37.7694 8.40517 38.0388 8.40517 38.3082 8.40517C40.625 8.40517 42.8879 8.89009 45.0431 9.80603C45.4202 9.96767 45.8513 10.0216 46.2284 10.0216C46.6595 10.0216 47.0366 9.91379 47.4138 9.69827C49.4073 8.56681 53.0172 6.46552 57.6508 5.92672C57.8663 5.87284 58.0819 5.87284 58.2435 5.87284C58.6745 5.81896 59.3211 5.76509 60.0754 5.65733C61.4763 5.54957 63.5776 5.38793 65.8405 5.38793C69.7737 5.38793 73.0064 5.87284 75.7543 6.78879L75.9159 6.84267L76.0776 6.89655C82.5431 9.32112 85.2909 12.3922 87.6077 15.3017C88.2004 16.1099 88.5237 16.4332 89.1702 17.0797L89.5474 17.403L89.8168 17.7263L90.0323 17.8879C91.1099 18.75 93.1573 20.3125 94.9892 23.2759L95.3125 23.8147L95.5819 24.3534C98.2219 29.7414 97.3599 34.5905 96.9288 37.1767V37.3384C96.6056 39.2241 96.0668 41.1099 95.3125 42.8879L95.2586 43.0496C95.2586 43.1034 95.2586 43.1034 95.2047 43.2112C95.1508 43.3728 95.1508 43.5345 95.1508 43.6961L95.0969 43.9116C94.9353 45.528 94.5582 47.0905 94.0194 48.5991C93.2112 51.0237 92.0797 53.2866 90.5711 55.334C89.1163 57.4353 87.4461 59.1595 85.6142 60.5065C84.806 61.0991 84.1594 61.8534 83.6745 62.7694C83.1896 63.6853 82.9741 64.6552 82.9741 65.6789C82.9741 66.9181 82.8125 68.2112 82.5969 69.4504C81.7349 74.084 79.7952 77.2091 78.556 79.0948L76.778 81.7349C73.653 86.0991 69.9353 88.9009 65.4633 90.3017L65.2478 90.3556C64.8707 90.4634 64.4935 90.5711 64.1163 90.625L63.8469 90.6789C62.6077 90.8944 61.3685 91.0021 60.1293 91.0021C59.9138 91.0021 59.6982 91.0021 59.4827 91.0021H59.4288C59.3211 91.0021 59.2133 91.0021 59.1056 91.0021C58.9978 91.0021 58.7823 91.0021 58.3513 91.0021H58.1896H58.028C57.4353 91.0021 56.681 91.056 56.0344 91.056C55.1185 91.1099 54.2564 91.2715 53.3944 91.5948C50.1616 92.5647 46.2284 93.1034 41.1638 93.1034Z" stroke="url(#paint4_linear_69_4907)" stroke-width="0.9235" stroke-miterlimit="10" />
        <path opacity="0.8" d="M41.1638 88.6315C38.0927 88.6315 35.0754 88.4159 32.4892 88.2004H32.2198L31.9504 88.1466C31.3578 88.0388 30.7112 87.9849 30.1185 87.931C27.8556 87.6616 25.0539 87.3922 22.0366 85.9375L21.7134 85.7759L21.444 85.6142C15.5711 82.3276 13.3621 77.3707 11.6379 73.3836C11.4224 72.8987 11.2069 72.4138 10.9914 71.875C10.291 70.4741 9.80604 69.0733 9.42889 67.8879L9.37501 67.7263L9.32113 67.5647C7.59699 61.4224 8.18966 57.5431 11.5302 52.694L11.6918 52.4784L11.8535 52.2629C12.1229 51.8858 12.3922 51.5625 12.6616 51.1853C13.5237 50.0539 14.3858 48.9224 15.625 47.5754C15.8944 47.306 16.056 46.875 16.1099 46.4978L16.1638 45.2586L16.1099 44.7737V44.2888C16.2177 40.3017 18.2112 37.3384 19.2888 35.722C19.3966 35.5603 19.5582 35.3448 19.6121 35.2371L19.7737 34.9677L19.9354 34.7522C20.1509 34.4289 20.6358 33.2974 21.0668 32.2737C21.2285 31.8427 21.444 30.9806 21.7134 30.2802C21.7672 30.0647 21.7672 30.0108 21.8211 29.5259C21.9828 27.8556 22.4138 26.1853 22.9526 24.6228L23.0065 24.5151L23.0604 24.4073C23.222 23.9763 23.3297 23.653 23.4914 23.222C23.9224 21.9289 24.569 20.0431 26.2392 17.9418L26.7241 17.3491L27.2091 16.9181C30.8728 13.6315 34.806 12.9849 37.5 12.8233H37.6078H37.7155C37.931 12.8233 38.0927 12.8233 38.3082 12.8233C40.5711 12.8233 43.319 13.9009 44.7737 14.6013C45.097 14.7629 45.4741 14.8707 45.8513 14.8707C46.2285 14.8707 46.6056 14.8168 46.9828 14.7091C47.8987 14.3858 48.7608 14.0086 49.569 13.5776C51.4009 12.5 54.4181 10.7759 58.1897 10.3448C58.4052 10.2909 58.5668 10.2909 58.7285 10.2909C59.1056 10.2371 59.6983 10.1832 60.4526 10.0754C61.7457 9.96767 63.6853 9.80603 65.7866 9.80603C69.181 9.80603 71.9828 10.1832 74.2457 10.9914L74.3535 11.0453L74.4612 11.0991C79.8491 13.1466 82.0043 15.4634 84.0517 18.1034C84.6983 18.9655 85.1832 19.5582 86.153 20.4203L86.3685 20.6358L86.5841 20.8513C86.7996 21.0668 87.0151 21.2284 87.2306 21.3901C88.1466 22.0905 89.7091 23.3297 91.056 25.5927L91.2716 25.9159L91.4332 26.2931C93.4267 30.334 92.7802 34.1595 92.403 36.4224V36.5841C92.1336 38.1466 91.7026 39.6552 91.056 41.1099C90.8944 41.4871 90.7866 41.8642 90.6789 42.2953C90.625 42.5647 90.5711 42.8341 90.5711 43.0496L90.5172 43.2651C90.3556 44.5582 90.0862 45.8513 89.6552 47.0905C89.0086 49.084 88.0388 50.9698 86.8535 52.6401C85.0216 55.2263 82.9203 57.0582 80.3879 58.2435C79.7953 58.5129 79.2565 58.944 78.8793 59.5366C78.5022 60.0754 78.2866 60.7759 78.2328 61.4224C78.2328 61.6918 78.2328 61.9073 78.2328 62.069C78.3405 64.0086 78.5022 66.2177 78.0711 68.5345C77.3707 72.306 75.7543 74.8384 74.569 76.7241C74.569 76.7241 69.0733 84.375 64.0625 85.9375L63.5237 86.0991L62.931 86.2069C61.9612 86.3685 60.9914 86.4763 59.9677 86.4763C59.806 86.4763 59.5905 86.4763 59.375 86.4763C59.2672 86.4763 59.1056 86.4763 58.944 86.4763C58.7285 86.4763 58.4052 86.4763 57.9203 86.5302H57.8125H57.7047C55.7651 86.5841 53.9871 86.6379 53.4483 86.7457C53.1789 86.7996 52.9095 86.8534 52.6401 86.9612C50 88.0927 46.2823 88.6315 41.1638 88.6315Z" stroke="url(#paint5_linear_69_4907)" stroke-width="0.8575" stroke-miterlimit="10" />
        <path opacity="0.8" d="M41.1638 84.2134C38.2543 84.2134 35.3448 83.9978 32.8663 83.8362H32.7586H32.6508C31.9504 83.7284 31.3038 83.6746 30.7112 83.6207C28.6099 83.4052 26.4008 83.1358 24.0301 82.0582L23.8685 82.0043L23.7069 81.9504C19.1271 79.3642 17.403 75.5388 15.7866 71.8211C15.5711 71.2823 15.3017 70.7435 15.0323 70.2047C14.4935 69.1272 14.0625 67.9418 13.7392 66.8103V66.7565V66.7026C12.3383 61.7996 12.7155 59.3211 15.3017 55.5496L15.3556 55.4418L15.4095 55.334C15.7327 54.9569 16.0021 54.5797 16.2715 54.2565C17.5107 52.6401 18.5883 51.2392 21.0129 48.9763C21.1745 48.8147 21.3362 48.5991 21.3901 48.3297C21.4439 48.1142 21.4439 47.8448 21.3362 47.6293L20.9051 46.3901C20.7974 46.0129 20.7435 45.5819 20.7435 45.2047V44.8815V44.6121C20.8513 41.9181 22.2521 39.8168 23.1681 38.4159C23.3297 38.2004 23.4375 37.9849 23.5452 37.8233L23.653 37.6616L23.7607 37.5C24.2457 36.8534 25.0538 34.9677 25.4849 33.8362C25.5926 33.459 25.862 32.5431 26.1314 31.8427C26.2931 31.3039 26.4008 30.7651 26.4547 30.2263C26.6163 28.8793 26.8857 27.5323 27.3707 26.2931V26.2392V26.1853C27.5862 25.6465 27.7478 25.2155 27.8556 24.7845C28.2327 23.653 28.6638 22.3599 29.8491 20.9052L30.0646 20.6358L30.2801 20.4203C32.8663 18.0496 35.722 17.6185 37.8771 17.4569H37.931H37.9849C38.0926 17.4569 38.2543 17.4569 38.362 17.4569C40.5172 17.4569 42.1336 18.319 43.2112 18.9116L43.4806 19.0194H43.5345C43.8577 19.181 44.0732 19.3427 44.3426 19.4504C44.9892 19.7737 45.7974 19.8815 46.4978 19.6659C48.0064 19.2888 50.3232 18.3728 51.8319 17.5108H51.8857C53.5021 16.5409 55.9806 15.1401 58.8901 14.8168C59.0517 14.7629 59.2672 14.7629 59.4288 14.7629C59.7521 14.709 60.3448 14.6552 60.9913 14.6013C62.1767 14.4935 64.0086 14.3319 65.8944 14.3319C68.8038 14.3319 71.1207 14.6552 72.8987 15.2478H72.9525H73.0064C77.3168 16.8642 78.9332 18.5884 80.6573 20.8513C81.3577 21.7672 82.0582 22.6293 83.3513 23.7608L83.459 23.8685L83.5668 23.9763C83.8901 24.2996 84.2672 24.6228 84.6982 24.9461C85.4526 25.5388 86.5301 26.347 87.4461 27.9095L87.5538 28.0711L87.6616 28.2328C89.0086 31.0345 88.5776 33.6746 88.2543 35.6681V35.8297C88.0388 37.069 87.7155 38.2543 87.1767 39.4397C86.9073 40.0862 86.6918 40.7866 86.584 41.4871C86.5301 41.9181 86.4763 42.2414 86.4224 42.5108L86.3685 42.7263C86.2607 43.75 86.0452 44.7198 85.722 45.6897C85.237 47.2522 84.4827 48.7069 83.5129 50.0539C81.8965 52.4246 80.0646 53.8793 77.6401 54.6336C76.4547 55.0108 75.4849 55.7651 74.8383 56.7888L74.6228 57.0582L74.4073 57.3276C73.8146 58.028 73.9763 60.722 74.084 62.3384C74.1918 64.1164 74.2995 65.9483 73.9763 67.6724C73.4375 70.6358 72.1444 72.6293 71.0129 74.3534C71.0129 74.3534 66.8103 80.4418 62.9849 81.5733L62.7155 81.681L62.4461 81.7349C61.7457 81.8427 60.9913 81.9504 60.237 81.9504C60.0754 81.9504 59.9138 81.9504 59.6982 81.9504C59.5366 81.9504 59.375 81.9504 59.1594 81.9504C58.8901 81.9504 58.5129 81.9504 57.8663 82.0043H57.8125H57.7586C55.2263 82.1121 53.6638 82.1659 52.8017 82.3276C52.209 82.4353 51.6702 82.597 51.1314 82.8125C48.8146 83.7284 45.6896 84.2134 41.1638 84.2134Z" stroke="url(#paint6_linear_69_4907)" stroke-width="0.8575" stroke-miterlimit="10" />
      </g>
    </g>
  </g>
  <defs>
    <radialGradient id="paint0_radial_69_4907" cx="0" cy="0" r="1" gradientUnits="userSpaceOnUse" gradientTransform="translate(50.0019 55.2237) rotate(90) scale(56.1667)">
      <stop offset="0.1667" stop-color="#073183" />
      <stop offset="1" stop-color="#0054F9" />
    </radialGradient>
    <linearGradient id="paint1_linear_69_4907" x1="-7.00228" y1="-11.2419" x2="107.56" y2="108.998" gradientUnits="userSpaceOnUse">
      <stop offset="0.2057" stop-color="#89D0FF" />
      <stop offset="0.3984" stop-color="#EBBF9A" />
      <stop offset="0.6015" stop-color="#EB8280" />
      <stop offset="0.8411" stop-color="#A281FF" />
    </linearGradient>
    <linearGradient id="paint2_linear_69_4907" x1="-2.55983" y1="-6.06826" x2="103.054" y2="105.233" gradientUnits="userSpaceOnUse">
      <stop offset="0.2057" stop-color="#89D0FF" />
      <stop offset="0.3984" stop-color="#EBBF9A" />
      <stop offset="0.6015" stop-color="#EB80DA" />
      <stop offset="0.8411" stop-color="#A281FF" />
    </linearGradient>
    <linearGradient id="paint3_linear_69_4907" x1="1.92701" y1="-1.59505" x2="98.5906" y2="100.766" gradientUnits="userSpaceOnUse">
      <stop offset="0.2057" stop-color="#89D0FF" />
      <stop offset="0.3984" stop-color="#EBBF9A" />
      <stop offset="0.6015" stop-color="#EB8280" />
      <stop offset="0.8411" stop-color="#A281FF" />
    </linearGradient>
    <linearGradient id="paint4_linear_69_4907" x1="6.40762" y1="2.8937" x2="94.101" y2="96.2861" gradientUnits="userSpaceOnUse">
      <stop offset="0.2057" stop-color="#89D0FF" />
      <stop offset="0.3984" stop-color="#EBBF9A" />
      <stop offset="0.6015" stop-color="#EB80E7" />
      <stop offset="0.8411" stop-color="#A281FF" />
    </linearGradient>
    <linearGradient id="paint5_linear_69_4907" x1="10.8622" y1="7.39106" x2="89.6022" y2="91.8082" gradientUnits="userSpaceOnUse">
      <stop offset="0.2057" stop-color="#89D0FF" />
      <stop offset="0.3984" stop-color="#EBBF9A" />
      <stop offset="0.6015" stop-color="#EB80D3" />
      <stop offset="0.8411" stop-color="#A281FF" />
    </linearGradient>
    <linearGradient id="paint6_linear_69_4907" x1="15.3745" y1="11.8343" x2="85.1535" y2="87.3103" gradientUnits="userSpaceOnUse">
      <stop offset="0.2057" stop-color="#89D0FF" />
      <stop offset="0.3984" stop-color="#EBBF9A" />
      <stop offset="0.6015" stop-color="#A280EB" />
      <stop offset="0.8411" stop-color="#A281FF" />
    </linearGradient>
    <clipPath id="clip0_69_4907">
      <rect width="100" height="100" fill="white" />
    </clipPath>
  </defs>
</svg>
