<svg width="100" height="100" viewBox="0 0 100 100" fill="none" xmlns="http://www.w3.org/2000/svg">
<circle cx="50" cy="50" r="50" fill="#8247E5"/>
<g clip-path="url(#clip0_69_5054)">
<path d="M65.5828 39.7589C64.4883 39.1335 63.081 39.1335 61.8301 39.7589L53.0739 44.9188L47.1322 48.2024L38.5323 53.3623C37.4378 53.9878 36.0306 53.9878 34.7797 53.3623L28.0562 49.297C26.9616 48.6715 26.1798 47.4206 26.1798 46.0134V38.1953C26.1798 36.9444 26.8053 35.6935 28.0562 34.9117L34.7797 31.0027C35.8742 30.3773 37.2815 30.3773 38.5323 31.0027L45.2559 35.0681C46.3504 35.6935 47.1322 36.9444 47.1322 38.3517V43.5116L53.0739 40.0716V34.7554C53.0739 33.5045 52.4485 32.2536 51.1976 31.4718L38.6887 24.1228C37.5942 23.4974 36.1869 23.4974 34.936 24.1228L22.1144 31.6282C20.8635 32.2536 20.2381 33.5045 20.2381 34.7554V49.4533C20.2381 50.7042 20.8635 51.9551 22.1144 52.7369L34.7797 60.0859C35.8742 60.7113 37.2815 60.7113 38.5323 60.0859L47.1322 55.0823L53.0739 51.6424L61.6738 46.6388C62.7683 46.0134 64.1756 46.0134 65.4264 46.6388L72.15 50.5478C73.2445 51.1733 74.0263 52.4242 74.0263 53.8314V61.6495C74.0263 62.9004 73.4009 64.1512 72.15 64.9331L65.5828 68.8421C64.4883 69.4675 63.081 69.4675 61.8301 68.8421L55.1066 64.9331C54.0121 64.3076 53.2303 63.0567 53.2303 61.6495V56.6459L47.2886 60.0859V65.2458C47.2886 66.4967 47.914 67.7476 49.1649 68.5294L61.8301 75.8783C62.9247 76.5038 64.3319 76.5038 65.5828 75.8783L78.248 68.5294C79.3426 67.9039 80.1244 66.653 80.1244 65.2458V50.3915C80.1244 49.1406 79.4989 47.8897 78.248 47.1079L65.5828 39.7589Z" fill="white"/>
</g>
<defs>
<clipPath id="clip0_69_5054">
<rect width="60.0426" height="52.381" fill="white" transform="translate(20.2381 23.8095)"/>
</clipPath>
</defs>
</svg>
