<svg width="100" height="100" viewBox="0 0 100 100" fill="none" xmlns="http://www.w3.org/2000/svg">
<rect width="100" height="100" rx="50" fill="#50AF95"/>
<path fill-rule="evenodd" clip-rule="evenodd" d="M55.3014 54.3025C55.0053 54.3247 53.4755 54.416 50.0629 54.416C47.3487 54.416 45.4216 54.3346 44.7455 54.3025C34.2562 53.8411 26.4269 52.0151 26.4269 49.8289C26.4269 47.6428 34.2562 45.8193 44.7455 45.3505V52.484C45.4314 52.5333 47.3956 52.6493 50.1098 52.6493C53.3669 52.6493 54.9979 52.5136 55.2915 52.4864V45.3554C65.7586 45.8218 73.5707 47.6477 73.5707 49.8289C73.5707 52.0102 65.7611 53.8361 55.2915 54.3L55.3014 54.3025ZM55.3014 44.6176V38.2342H69.9089V28.5H30.138V38.2342H44.743V44.6151C32.8719 45.1605 23.9446 47.512 23.9446 50.3298C23.9446 53.1477 32.8719 55.4968 44.743 56.0445V76.5H55.2989V56.0371C67.1429 55.4918 76.0554 53.1428 76.0554 50.3274C76.0554 47.512 67.1503 45.1629 55.2989 44.6151L55.3014 44.6176Z" fill="white"/>
</svg>
