<svg width="100" height="100" viewBox="0 0 100 100" fill="none" xmlns="http://www.w3.org/2000/svg">
<rect width="100" height="100" rx="50" fill="#FF007A"/>
<path d="M39.3775 28.6462C38.7277 28.5534 38.6968 28.5224 39.0062 28.4915C39.5941 28.3987 40.9556 28.5224 41.9149 28.739C44.1429 29.2651 46.1542 30.6266 48.2893 33.0093L48.8463 33.6591L49.6509 33.5353C53.0856 32.9783 56.6132 33.4116 59.5529 34.7731C60.3574 35.1444 61.6261 35.8871 61.7808 36.0727C61.8427 36.1346 61.9355 36.5369 61.9974 36.9391C62.214 38.3935 62.1212 39.4765 61.657 40.312C61.4095 40.7762 61.4095 40.9 61.5642 41.3022C61.688 41.6117 62.0593 41.8283 62.3997 41.8283C63.1423 41.8283 63.9159 40.6524 64.2873 39.0124L64.442 38.3626L64.7205 38.672C66.2986 40.4358 67.5364 42.8804 67.722 44.6132L67.7839 45.0774L67.5054 44.6751C67.0413 43.9634 66.608 43.4992 66.0201 43.097C64.968 42.3853 63.8541 42.1686 60.9144 42.0139C58.2532 41.8592 56.737 41.6426 55.2517 41.1475C52.7143 40.312 51.4146 39.229 48.4131 35.2372C47.0825 33.4734 46.247 32.5142 45.4116 31.7096C43.5859 29.9459 41.7602 29.0175 39.3775 28.6462Z" fill="white"/>
<path d="M62.4306 32.5761C62.4925 31.4002 62.6473 30.6266 62.9876 29.9149C63.1114 29.6364 63.2352 29.3889 63.2661 29.3889C63.2971 29.3889 63.2352 29.6055 63.1424 29.853C62.8948 30.5338 62.8639 31.493 63.0186 32.5761C63.2352 33.9685 63.328 34.1542 64.8133 35.6705C65.4941 36.3822 66.2986 37.2795 66.6081 37.6509L67.1341 38.3316L66.6081 37.8365C65.9582 37.2176 64.4729 36.0418 64.1326 35.8871C63.9159 35.7633 63.885 35.7633 63.7303 35.918C63.6065 36.0418 63.5756 36.2274 63.5756 37.1248C63.5446 38.5173 63.359 39.3837 62.8948 40.2811C62.6473 40.7452 62.6163 40.6524 62.8329 40.1264C62.9876 39.7241 63.0186 39.5384 63.0186 38.2078C63.0186 35.5157 62.7091 34.8659 60.8216 33.7829C60.3574 33.5044 59.5529 33.1021 59.0887 32.8855C58.5936 32.6689 58.2223 32.4832 58.2532 32.4832C58.3151 32.4214 60.1408 32.9474 60.8525 33.2568C61.9355 33.6901 62.1212 33.721 62.245 33.6901C62.3378 33.5972 62.3997 33.3497 62.4306 32.5761Z" fill="white"/>
<path d="M40.6462 37.1867C39.3466 35.392 38.5111 32.607 38.6968 30.5338L38.7587 29.884L39.0681 29.9458C39.6251 30.0387 40.5843 30.41 41.0485 30.6885C42.2863 31.4312 42.8432 32.4523 43.3693 34.9897C43.524 35.7323 43.7406 36.5988 43.8334 36.8773C43.9882 37.3414 44.5761 38.4244 45.0712 39.1052C45.4116 39.6003 45.195 39.8479 44.4214 39.786C43.2455 39.6622 41.6674 38.5792 40.6462 37.1867Z" fill="white"/>
<path d="M60.8525 50.6472C54.7256 48.1717 52.5596 46.0366 52.5596 42.4162C52.5596 41.8902 52.5905 41.4569 52.5905 41.4569C52.6215 41.4569 52.8381 41.6426 53.1166 41.8592C54.3543 42.8494 55.7468 43.2826 59.6148 43.8396C61.8736 44.18 63.1733 44.4275 64.3492 44.8298C68.0934 46.0676 70.4141 48.605 70.9711 52.0397C71.1258 53.0299 71.033 54.9175 70.7855 55.9077C70.5689 56.6813 69.95 58.1047 69.7953 58.1356C69.7643 58.1356 69.7024 57.9809 69.7024 57.7334C69.6405 56.4337 68.9907 55.196 67.9077 54.2367C66.608 53.1227 64.9371 52.2873 60.8525 50.6472Z" fill="white"/>
<path d="M56.5204 51.6684C56.4585 51.2042 56.3038 50.6163 56.2109 50.3688L56.0562 49.9046L56.3347 50.245C56.737 50.7091 57.0464 51.2661 57.3249 52.0397C57.5415 52.6276 57.5415 52.8133 57.5415 53.7726C57.5415 54.7009 57.5106 54.9175 57.3249 55.4435C57.0155 56.279 56.6442 56.8669 56.0253 57.5168C54.9113 58.6617 53.4569 59.2806 51.3837 59.5591C51.0124 59.59 49.9603 59.6828 49.032 59.7447C46.7112 59.8685 45.164 60.116 43.7715 60.6111C43.5859 60.673 43.4002 60.7349 43.3693 60.704C43.3074 60.6421 44.2666 60.0851 45.0402 59.7138C46.1233 59.1877 47.2372 58.9092 49.6818 58.476C50.8886 58.2904 52.1264 58.0428 52.4358 57.919C55.4992 56.9598 57.0155 54.5771 56.5204 51.6684Z" fill="white"/>
<path d="M59.3363 56.6503C58.5317 54.8865 58.3461 53.2156 58.7793 51.6374C58.8412 51.4827 58.9031 51.328 58.965 51.328C59.0268 51.328 59.2125 51.4208 59.3982 51.5446C59.7695 51.7922 60.5431 52.2254 62.5235 53.3084C65.0299 54.6699 66.4533 55.722 67.4435 56.9288C68.31 57.9809 68.836 59.1877 69.0836 60.673C69.2383 61.5085 69.1455 63.5199 68.9288 64.3553C68.2481 66.9856 66.7009 69.0897 64.442 70.2965C64.1016 70.4822 63.8231 70.606 63.7922 70.606C63.7612 70.606 63.885 70.2965 64.0707 69.9252C64.8133 68.3471 64.9062 66.8308 64.3492 65.1289C64.0088 64.0768 63.2971 62.8082 61.8737 60.673C60.1718 58.1975 59.7695 57.5477 59.3363 56.6503Z" fill="white"/>
<path d="M36.2832 66.1191C38.573 64.2006 41.3889 62.8391 43.9882 62.4059C45.1021 62.2202 46.9588 62.2821 47.9799 62.5606C49.6199 62.9938 51.1052 63.9221 51.8788 65.067C52.6215 66.181 52.9619 67.1403 53.3022 69.2754C53.426 70.1109 53.5807 70.9773 53.6117 71.163C53.8592 72.2769 54.3543 73.1434 54.9732 73.6075C55.9325 74.3192 57.6034 74.3502 59.2434 73.7313C59.5219 73.6385 59.7695 73.5456 59.7695 73.5766C59.8314 73.6385 58.9959 74.1955 58.4389 74.474C57.6653 74.8762 57.0464 75 56.2109 75C54.7256 75 53.457 74.2264 52.4358 72.6792C52.2192 72.3698 51.786 71.4724 51.4147 70.6369C50.3316 68.1305 49.7746 67.3878 48.5059 66.5523C47.392 65.8406 45.9686 65.6859 44.8855 66.212C43.4621 66.8927 43.0908 68.7184 44.081 69.8324C44.4833 70.2965 45.2259 70.6679 45.8448 70.7607C46.9897 70.9154 47.9799 70.0181 47.9799 68.8731C47.9799 68.1305 47.7014 67.6973 46.9588 67.3569C45.9686 66.9237 44.8855 67.4188 44.9165 68.378C44.9165 68.7803 45.1021 69.0278 45.5044 69.2135C45.752 69.3373 45.7519 69.3373 45.5663 69.3063C44.6689 69.1207 44.4523 68.0067 45.164 67.295C46.0304 66.4286 47.8561 66.7999 48.475 68.0067C48.7226 68.5018 48.7535 69.492 48.5369 70.1109C48.0108 71.4724 46.5255 72.1841 45.0093 71.7818C43.9882 71.5034 43.5549 71.2249 42.3172 69.9562C40.1511 67.7282 39.3156 67.295 36.2213 66.8308L35.6333 66.738L36.2832 66.1191Z" fill="white"/>
<path fill-rule="evenodd" clip-rule="evenodd" d="M20.0067 16.3306C27.2166 25.0877 38.3254 38.7029 38.8824 39.4456C39.3466 40.0645 39.1609 40.6524 38.3873 41.0856C37.9541 41.3332 37.0567 41.5807 36.6235 41.5807C36.1284 41.5807 35.5405 41.3332 35.1382 40.9309C34.8597 40.6524 33.6529 38.8886 30.9299 34.6493C28.8566 31.4002 27.0928 28.7081 27.0619 28.6772C26.9381 28.6153 26.9381 28.6153 30.7133 35.361C33.0959 39.6003 33.8695 41.1166 33.8695 41.3022C33.8695 41.7045 33.7458 41.9211 33.2507 42.4781C32.4152 43.4064 32.0438 44.4585 31.7654 46.6555C31.4559 49.1001 30.6204 50.8329 28.2378 53.7726C26.8453 55.5054 26.6287 55.8149 26.2883 56.5266C25.8551 57.393 25.7313 57.8881 25.6694 59.0021C25.6075 60.1779 25.7313 60.9206 26.0717 62.0346C26.3811 63.0248 26.7215 63.6746 27.557 64.9433C28.2687 66.0573 28.7019 66.8927 28.7019 67.2022C28.7019 67.4497 28.7638 67.4497 29.8778 67.2022C32.5389 66.5833 34.736 65.5312 35.9428 64.2316C36.6854 63.427 36.8711 62.9938 36.8711 61.8798C36.8711 61.1681 36.8401 61.0134 36.6545 60.5802C36.345 59.8994 35.7571 59.3425 34.4884 58.476C32.8174 57.3311 32.1057 56.4028 31.9201 55.165C31.7654 54.113 31.951 53.4012 32.8793 51.4518C33.8386 49.4404 34.0861 48.605 34.2409 46.5627C34.3337 45.263 34.4884 44.737 34.8597 44.3347C35.262 43.9015 35.6024 43.7468 36.5616 43.623C38.1398 43.4064 39.1609 43.0041 39.9655 42.2305C40.6772 41.5807 40.9866 40.9309 41.0175 39.9716L41.0485 39.2599L40.6462 38.8267C39.1919 37.1558 19.0475 15 18.9546 15C18.9237 15 19.4188 15.5879 20.0067 16.3306ZM29.5065 60.3327C29.8468 59.7447 29.6612 59.0021 29.1042 58.6307C28.5781 58.2904 27.7736 58.4451 27.7736 58.9092C27.7736 59.033 27.8355 59.1568 28.0212 59.2187C28.2996 59.3734 28.3306 59.5281 28.114 59.8685C27.8974 60.2089 27.8974 60.5183 28.1759 60.7349C28.6091 61.0753 29.197 60.8896 29.5065 60.3327Z" fill="white"/>
<path fill-rule="evenodd" clip-rule="evenodd" d="M42.0387 44.0562C41.296 44.2728 40.5843 45.0774 40.3677 45.8819C40.2439 46.377 40.3058 47.2744 40.5224 47.5529C40.8628 47.9861 41.1722 48.1099 42.0387 48.1099C43.7406 48.1099 45.1949 47.3672 45.3497 46.4698C45.5044 45.7272 44.8546 44.706 43.9572 44.2419C43.493 43.9943 42.5338 43.9015 42.0387 44.0562ZM44.0191 45.6034C44.2666 45.2321 44.1738 44.8298 43.7096 44.5513C42.8742 44.0253 41.6055 44.4585 41.6055 45.263C41.6055 45.6653 42.2553 46.0985 42.8742 46.0985C43.2764 46.0985 43.8334 45.851 44.0191 45.6034Z" fill="white"/>
</svg>
